<?xml version="1.0" standalone="no"?>
<!DOCTYPE svg PUBLIC "-//W3C//DTD SVG 20010904//EN"
 "http://www.w3.org/TR/2001/REC-SVG-20010904/DTD/svg10.dtd">
<svg version="1.0" xmlns="http://www.w3.org/2000/svg"
 width="3840.000000pt" height="3840.000000pt" viewBox="0 0 3840.000000 3840.000000"
 preserveAspectRatio="xMidYMid meet">
<metadata>
Created by potrace 1.11, written by Peter Selinger 2001-2013
</metadata>
<g transform="translate(0.000000,3840.000000) scale(0.100000,-0.100000)"
fill="#000000" stroke="none">
<path d="M0 19200 l0 -19200 19200 0 19200 0 0 19200 0 19200 -19200 0 -19200
0 0 -19200z m8065 5926 c365 -54 724 -183 1084 -390 62 -36 116 -67 118 -70 2
-2 -29 -57 -70 -122 -710 -1133 -1032 -2294 -907 -3274 126 -994 706 -1670
1433 -1670 738 0 1428 671 1900 1845 78 197 214 608 268 815 23 91 45 168 49
173 3 4 163 -264 355 -595 192 -332 394 -677 450 -768 363 -592 558 -1008 641
-1366 35 -156 44 -371 20 -491 -85 -421 -465 -672 -1171 -772 -77 -11 -255
-29 -395 -41 -140 -11 -410 -37 -600 -56 -796 -80 -937 -94 -1180 -113 -1000
-79 -1681 -59 -2335 70 -578 114 -1152 344 -1565 627 -706 485 -1143 1254
-1244 2192 -90 826 96 1732 505 2470 173 311 357 558 589 791 233 235 435 383
705 519 273 138 520 209 850 244 77 8 401 -4 500 -18z m23004 -1101 c245 -35
445 -98 676 -210 257 -125 469 -278 690 -500 849 -848 1251 -2288 995 -3565
-61 -306 -149 -563 -287 -840 -336 -677 -853 -1138 -1598 -1425 -439 -169
-905 -269 -1429 -306 -221 -15 -860 -6 -1096 15 -499 46 -918 106 -1800 261
-234 41 -537 93 -675 115 -137 22 -318 52 -402 66 -351 57 -661 156 -863 274
-331 193 -482 480 -441 837 47 405 269 845 807 1604 76 108 306 442 509 742
204 300 373 543 376 539 3 -4 21 -86 39 -182 206 -1088 611 -1956 1130 -2417
222 -198 482 -331 730 -374 104 -18 296 -16 403 5 536 103 987 589 1192 1284
213 723 165 1588 -140 2507 -117 355 -230 621 -423 1000 l-109 213 136 65
c371 179 728 280 1096 311 92 7 379 -4 484 -19z m-21501 -650 c84 -36 106 -88
117 -272 9 -153 -7 -208 -79 -279 -75 -73 -142 -95 -313 -101 -129 -5 -133 -5
-176 21 -54 31 -118 102 -146 160 -29 60 -45 182 -32 252 31 166 160 231 464
233 94 1 137 -3 165 -14z m19662 -980 c277 -42 376 -149 340 -367 -15 -93 -37
-141 -90 -201 -92 -103 -161 -122 -333 -92 -203 35 -310 121 -324 259 -7 63
12 230 33 297 15 49 53 91 94 108 37 15 172 13 280 -4z"/>
</g>
</svg>
